#!OML:ASF G:\JayActor3\Patient Classification 1\Patient 1\Session 6\male.ASF
:FULLY-SPECIFIED
:DEGREES
837
root -1.32824 16.2065 -21.5531 173.733 -31.0435 -175.028
lowerback -0.959458 -0.68046 0.915085
upperback 5.2571 -1.12476 -0.105263
thorax 5.96429 -0.586759 -0.698253
lowerneck -3.77955 -0.42218 1.19391
upperneck 25.161 -3.2562 3.11599
head 8.46574 -1.79622 0.475467
rclavicle -3.79679e-014 3.18055e-015
rhumerus -3.88596 47.8195 -55.594
rradius 121.787
rwrist -45.7683
rhand -33.4245 -22.6641
rfingers 7.12502
rthumb -6.62398 -52.5405
lclavicle -3.79679e-014 3.18055e-015
lhumerus -31.0974 7.12858 80.2862
lradius 28.0951
lwrist 17.5624
lhand -17.3974 10.9612
lfingers 7.12502
lthumb 8.85184 40.7556
rfemur -16.0609 8.40911 17.8802
rtibia 38.8561
rfoot -21.1589 -9.55842
rtoes -12.0029
lfemur -1.54519 15.356 -17.8754
ltibia 27.6021
lfoot -23.5644 14.7291
ltoes -2.43831
838
root -1.33645 16.2062 -21.54 173.718 -30.9341 -175.064
lowerback -0.989935 -0.666778 0.890239
upperback 5.28936 -1.1057 -0.147757
thorax 6.01591 -0.577724 -0.728313
lowerneck -3.53724 -0.326784 1.30343
upperneck 25.1743 -3.13844 3.05637
head 8.42242 -1.74741 0.448133
rclavicle 5.60573e-014 -8.74653e-015
rhumerus -3.0331 47.6144 -54.7951
rradius 122.451
rwrist -46.1994
rhand -33.3815 -22.936
rfingers 7.12502
rthumb -6.58254 -52.8137
lclavicle 5.60573e-014 -8.74653e-015
lhumerus -31.0759 7.14092 80.1922
lradius 27.9589
lwrist 17.5212
lhand -17.439 10.9627
lfingers 7.12502
lthumb 8.8117 40.7587
rfemur -16.0348 8.60054 17.876
rtibia 38.7494
rfoot -20.917 -9.65148
rtoes -11.5568
lfemur -1.50059 15.3585 -17.9683
ltibia 27.5632
lfoot -23.5874 14.84
ltoes -2.36781
839
root -1.34408 16.206 -21.5276 173.702 -30.8273 -175.093
lowerback -1.02895 -0.648955 0.876127
upperback 5.32462 -1.08162 -0.191866
thorax 6.07555 -0.565615 -0.765935
lowerneck -3.31555 -0.238587 1.41363
upperneck 25.2038 -3.03416 3.00284
head 8.38906 -1.70397 0.42108
rclavicle -8.7664e-014 2.3059e-014
rhumerus -2.18119 47.3798 -54.0083
rradius 123.101
rwrist -46.6185
rhand -33.3975 -23.3069
rfingers 7.12502
rthumb -6.59798 -53.1841
lclavicle -8.7664e-014 2.3059e-014
lhumerus -31.0492 7.15025 80.0944
lradius 27.8242
lwrist 17.481
lhand -17.47 10.9637
lfingers 7.12502
lthumb 8.78176 40.761
rfemur -16.0027 8.86297 17.8699
rtibia 38.6626
rfoot -20.6021 -9.75886
rtoes -10.9307
lfemur -1.46019 15.3458 -18.0551
ltibia 27.5276
lfoot -23.6152 14.9554
ltoes -2.27866
840
root -1.3515 16.2058 -21.5158 173.682 -30.7258 -175.111
lowerback -1.07465 -0.625909 0.879019
upperback 5.36244 -1.05144 -0.235417
thorax 6.14171 -0.549635 -0.812249
lowerneck -3.10047 -0.165576 1.52423
upperneck 25.2311 -2.952 2.95579
head 8.35681 -1.66998 0.394159
rclavicle 1.48095e-014 -1.11319e-014
rhumerus -1.33009 47.1071 -53.2357
rradius 123.724
rwrist -47.0187
rhand -33.4541 -23.7249
rfingers 7.12502
rthumb -6.6526 -53.6004
lclavicle 1.48095e-014 -1.11319e-014
lhumerus -31.0191 7.14941 80.0006
lradius 27.6938
lwrist 17.4409
lhand -17.4873 10.9703
lfingers 7.12502
lthumb 8.7651 40.7683
rfemur -15.9641 9.17072 17.8661
rtibia 38.5882
rfoot -20.2428 -9.89522
rtoes -10.1396
lfemur -1.42225 15.3296 -18.1287
ltibia 27.4957
lfoot -23.6459 15.0647
ltoes -2.18084
841
root -1.359 16.2056 -21.5046 173.655 -30.628 -175.116
lowerback -1.12497 -0.596001 0.902584
upperback 5.40314 -1.01312 -0.279556
thorax 6.21356 -0.528561 -0.870319
lowerneck -2.88335 -0.108067 1.63789
upperneck 25.2469 -2.8919 2.91755
head 8.32079 -1.64502 0.367927
rclavicle 1.0466e-013 -4.77083e-015
rhumerus -0.488371 46.7926 -52.4859
rradius 124.316
rwrist -47.3969
rhand -33.5319 -24.1687
rfingers 7.12502
rthumb -6.72767 -54.0418
lclavicle 1.0466e-013 -4.77083e-015
lhumerus -30.9835 7.13039 79.9115
lradius 27.5658
lwrist 17.4103
lhand -17.4936 10.9843
lfingers 7.12502
lthumb 8.75908 40.7825
rfemur -15.9189 9.49637 17.8664
rtibia 38.5155
rfoot -19.864 -10.0645
rtoes -9.27272
lfemur -1.38259 15.305 -18.1899
ltibia 27.4654
lfoot -23.6799 15.1749
ltoes -2.06973
